<svg xmlns="http://www.w3.org/2000/svg" width="2000.0001" height="1999.9993" viewBox="0 0 2000.0001 1999.9993"><defs><style>.a{fill:#774c28;}</style></defs><title>logosvgb</title><path class="a" d="M1602.43,1057.5441l-132.9594-89.67a14.1648,14.1648,0,0,1-2.2686-21.584l111.41-115.3546a14.1648,14.1648,0,0,0-7.73-23.79l-157.9366-27.8385a14.1647,14.1647,0,0,1-10.8514-18.7952l54.8595-150.6964a14.1648,14.1648,0,0,0-16.7379-18.5893l-155.6052,38.8069a14.1648,14.1648,0,0,1-17.558-12.7566L1255.876,457.2946a14.1647,14.1647,0,0,0-22.8517-10.1743L1106.656,545.8626a14.1647,14.1647,0,0,1-21.2285-4.5123l-75.2811-141.6041a14.1648,14.1648,0,0,0-25.0144,0L909.851,541.35a14.1649,14.1649,0,0,1-21.2286,4.5123L762.2541,447.12a14.1648,14.1648,0,0,0-22.8517,10.1743L728.2252,617.276a14.1648,14.1648,0,0,1-17.558,12.7566L555.062,591.2257a14.1648,14.1648,0,0,0-16.7379,18.5893l54.8595,150.6964a14.1648,14.1648,0,0,1-10.8514,18.7952L424.3956,807.1451a14.1648,14.1648,0,0,0-7.73,23.79L528.0761,946.29a14.1648,14.1648,0,0,1-2.2686,21.584l-132.9594,89.67a14.1648,14.1648,0,0,0,2.6147,24.8773l148.6974,60.067a14.1648,14.1648,0,0,1,6.7065,20.6406l-84.9922,135.9974a14.1648,14.1648,0,0,0,12.5072,21.6631l160.2733-5.6068a14.1648,14.1648,0,0,1,14.522,16.1283L630.848,1490.12a14.1649,14.1649,0,0,0,20.2371,14.7031l144.1365-70.311a14.1647,14.1647,0,0,1,19.8265,8.8273l44.1948,154.1615a14.1648,14.1648,0,0,0,24.4678,5.2008l103.0771-122.8579a14.1647,14.1647,0,0,1,21.7029,0l103.0771,122.8579a14.1648,14.1648,0,0,0,24.4678-5.2008L1180.23,1443.34a14.1647,14.1647,0,0,1,19.8265-8.8273l144.1365,70.311A14.1649,14.1649,0,0,0,1364.43,1490.12l-22.3291-158.8093a14.1647,14.1647,0,0,1,14.522-16.1283l160.2732,5.6068a14.1649,14.1649,0,0,0,12.5073-21.6631l-84.9923-135.9974a14.1648,14.1648,0,0,1,6.7067-20.6406l148.6973-60.067A14.1648,14.1648,0,0,0,1602.43,1057.5441ZM1000,1381.9775c-210.96,0-381.9777-171.0171-381.9777-381.9776S789.04,618.0223,1000,618.0223,1381.9775,789.04,1381.9775,1000,1210.96,1381.9775,1000,1381.9775Z" transform="translate(-0.0006 -0.0012)"/><circle class="a" cx="999.9993" cy="999.9988" r="236.0801"/><path class="a" d="M1743.1361,330.8771C1462.284,18.9594,1029.6946-75.04,658.0681,60.0092A379.617,379.617,0,0,1,707.3248,195.05c.0035.0212.0058.0425.0092.0637,317.2011-114.84,686.1681-34.5042,925.7993,231.633,315.63,350.5424,287.3275,890.5816-63.2148,1206.2114s-890.5816,287.3274-1206.2112-63.2148C124.076,1303.6063,82.7485,928.2631,230.1155,624.8036c-.0207-.0056-.0416-.01-.0624-.0159A379.6159,379.6159,0,0,1,100.9,561.6853C-72.2548,917.16-23.988,1357.2047,256.864,1669.1224c369.5513,410.4283,1001.83,443.5648,1412.2587,74.0137S2112.6872,741.3055,1743.1361,330.8771Z" transform="translate(-0.0006 -0.0012)"/><path class="a" d="M523.5206,120.5752A1008.0222,1008.0222,0,0,0,175.1987,434.2057,236.1033,236.1033,0,0,0,523.5206,120.5752Z" transform="translate(-0.0006 -0.0012)"/></svg>