<?xml version="1.0" standalone="no"?>
<!DOCTYPE svg PUBLIC "-//W3C//DTD SVG 20010904//EN"
 "http://www.w3.org/TR/2001/REC-SVG-20010904/DTD/svg10.dtd">
<svg version="1.0" xmlns="http://www.w3.org/2000/svg"
 width="700.000000pt" height="700.000000pt" viewBox="0 0 700.000000 700.000000"
 preserveAspectRatio="xMidYMid meet">
<metadata>
Created by potrace 1.11, written by Peter Selinger 2001-2013
</metadata>
<g transform="translate(0.000000,700.000000) scale(0.100000,-0.100000)"
fill="#000000" stroke="none">
<path d="M3328 6655 c-2 -1 -41 -5 -88 -9 -236 -18 -482 -67 -712 -142 l-107
-35 44 -87 c44 -88 90 -220 101 -292 8 -47 18 -49 96 -20 106 39 374 98 518
114 196 22 464 22 615 2 17 -3 53 -7 80 -11 443 -57 896 -250 1279 -544 135
-103 386 -352 457 -453 13 -18 29 -39 37 -47 21 -21 144 -208 186 -281 61
-106 146 -288 187 -397 33 -91 92 -285 105 -345 28 -140 53 -310 59 -404 6
-80 6 -373 1 -404 -3 -14 -7 -56 -11 -93 -3 -37 -8 -78 -11 -90 -2 -12 -7 -42
-10 -67 -3 -25 -10 -63 -16 -85 -5 -22 -12 -51 -15 -65 -39 -179 -113 -388
-209 -585 -85 -176 -194 -347 -321 -505 -72 -90 -262 -284 -353 -361 -344
-290 -766 -497 -1190 -583 -113 -23 -131 -26 -185 -32 -27 -3 -79 -9 -115 -14
-36 -4 -153 -8 -260 -8 -206 1 -303 9 -460 37 -30 6 -70 13 -89 16 -19 3 -38
8 -41 10 -4 3 -25 7 -46 11 -59 9 -308 92 -414 137 -245 105 -507 267 -702
434 -65 56 -246 240 -294 298 -27 33 -52 62 -55 65 -10 9 -113 153 -151 210
-289 442 -439 948 -438 1480 0 149 5 220 25 375 8 58 44 246 50 255 2 4 6 19
9 34 15 81 89 297 142 415 19 40 34 79 34 85 0 7 -30 23 -67 36 -89 30 -216
93 -277 137 -27 19 -52 31 -57 26 -24 -24 -152 -350 -184 -468 -7 -27 -23 -84
-34 -125 -67 -244 -100 -531 -95 -835 1 -104 5 -206 8 -225 3 -19 8 -60 11
-90 3 -30 7 -66 10 -80 3 -14 8 -45 11 -70 7 -47 10 -69 19 -110 3 -14 7 -34
9 -45 13 -67 61 -236 94 -335 126 -370 313 -705 565 -1010 94 -114 312 -332
420 -420 361 -295 784 -508 1227 -619 109 -28 209 -50 254 -56 12 -2 44 -6 71
-10 28 -4 61 -8 75 -10 128 -19 474 -26 635 -13 254 21 481 67 720 144 728
237 1342 726 1740 1388 45 76 175 328 175 340 0 3 9 25 20 49 56 123 148 411
176 552 2 11 8 43 14 70 10 53 14 79 26 160 3 28 8 59 10 70 24 124 24 673 0
746 -3 8 -7 42 -11 76 -3 35 -7 68 -10 75 -2 7 -6 29 -9 48 -27 171 -99 421
-181 621 -249 610 -678 1121 -1245 1483 -140 90 -435 234 -595 291 -142 51
-384 119 -460 129 -27 4 -51 9 -55 11 -3 2 -26 6 -50 9 -25 4 -56 9 -70 11
-25 4 -79 11 -169 21 -46 6 -448 13 -453 9z"/>
<path d="M1909 6229 c-249 -149 -438 -296 -644 -503 -148 -148 -226 -239 -321
-372 l-48 -67 35 -28 c55 -46 177 -105 269 -129 104 -28 250 -31 355 -6 78 19
234 91 280 130 191 163 284 344 290 566 5 149 -30 290 -100 407 l-31 52 -85
-50z"/>
<path d="M3463 5408 c-9 -12 -39 -66 -134 -245 -129 -242 -123 -233 -151 -233
-17 0 -72 31 -88 50 -3 3 -50 41 -105 83 -55 43 -108 85 -118 93 -75 62 -139
102 -157 97 -30 -8 -35 -32 -45 -203 -3 -63 -8 -140 -11 -170 -2 -30 -6 -84
-9 -119 -5 -69 -16 -91 -48 -91 -19 0 -145 30 -212 50 -26 8 -135 34 -186 45
-9 2 -34 8 -55 14 -60 17 -83 14 -95 -12 -9 -20 3 -62 74 -258 47 -129 88
-243 91 -255 14 -46 -20 -58 -269 -98 -16 -2 -55 -9 -85 -15 -30 -6 -66 -12
-80 -14 -118 -20 -119 -20 -133 -58 -5 -16 10 -33 261 -294 110 -114 127 -143
99 -168 -6 -7 -106 -75 -220 -152 -115 -77 -213 -147 -218 -157 -20 -38 -7
-48 171 -118 58 -23 119 -47 135 -55 17 -7 66 -27 110 -45 98 -39 108 -47 100
-77 -3 -14 -66 -120 -140 -238 -74 -117 -135 -221 -135 -232 1 -47 16 -49 285
-38 84 3 246 7 271 6 41 -2 41 -31 7 -269 -39 -263 -42 -310 -22 -323 23 -14
44 -6 282 110 125 61 235 111 245 111 10 0 24 -10 30 -22 7 -13 44 -133 82
-268 39 -134 76 -248 83 -252 26 -16 46 -6 88 44 24 28 49 56 54 62 6 6 66 77
134 159 68 81 131 147 140 147 24 0 27 -4 141 -140 58 -69 112 -133 122 -143
9 -11 34 -41 55 -67 21 -27 48 -54 59 -60 45 -25 55 -6 133 262 40 139 78 259
83 266 18 21 43 14 175 -52 313 -155 344 -169 370 -157 28 13 28 23 -2 231 -9
63 -18 126 -20 140 -2 14 -6 43 -9 65 -3 22 -8 58 -11 80 -8 57 10 78 66 78
33 0 411 -13 439 -15 49 -3 72 4 82 27 9 21 7 30 -14 62 -101 152 -258 416
-258 433 0 27 23 40 175 100 72 28 144 57 160 64 17 7 62 26 100 42 39 15 73
33 77 39 17 24 6 51 -30 75 -20 14 -39 27 -42 30 -3 3 -85 59 -184 125 -168
113 -202 144 -187 171 3 7 85 94 181 194 96 100 179 188 183 196 18 32 -10 63
-63 69 -8 1 -44 8 -80 14 -36 7 -76 14 -90 17 -14 2 -64 11 -112 19 -48 9
-106 18 -130 21 -53 7 -88 28 -88 53 0 15 53 171 80 236 20 50 82 223 90 253
9 36 -7 62 -39 62 -10 0 -125 -27 -257 -60 -131 -33 -247 -60 -256 -60 -41 0
-47 30 -64 325 -3 50 -7 99 -9 110 -2 11 -4 41 -4 68 -1 53 -28 91 -58 80 -9
-4 -108 -78 -220 -165 -111 -87 -211 -158 -220 -158 -29 0 -38 11 -88 105 -26
50 -66 123 -87 163 -22 41 -51 97 -66 125 -44 88 -83 118 -109 85z m197 -712
c61 -8 195 -40 237 -58 224 -91 309 -145 453 -288 263 -260 386 -608 347 -980
-13 -120 -22 -161 -65 -280 -58 -165 -150 -308 -282 -440 -179 -179 -387 -289
-637 -336 -99 -18 -270 -24 -353 -12 -30 5 -66 10 -80 12 -130 19 -322 99
-465 194 -91 60 -247 217 -308 310 -184 276 -245 563 -193 902 21 139 94 312
195 465 57 86 215 246 296 299 33 22 76 50 95 63 56 36 221 101 312 123 148
35 303 44 448 26z"/>
<path d="M3467 4244 c-1 -1 -29 -4 -62 -7 -33 -3 -73 -10 -88 -16 -15 -6 -27
-9 -27 -6 0 7 -119 -45 -172 -76 -262 -154 -406 -469 -351 -768 30 -159 96
-284 208 -397 144 -144 330 -219 535 -217 77 1 137 9 174 22 14 6 26 9 26 6 0
-8 136 52 180 80 218 136 353 376 353 630 0 92 -8 146 -33 229 -92 298 -368
508 -683 520 -31 1 -58 2 -60 0z"/>
</g>
</svg>
